<svg width="144" height="41" viewBox="0 0 144 41" fill="none" xmlns="http://www.w3.org/2000/svg">
<path d="M67.3203 19H69.8281L65.9062 7.72656H63.1328L59.2188 19H61.6406L62.5 16.2656H66.4609L67.3203 19ZM64.4531 9.88281H64.5078L65.9531 14.5H63.0078L64.4531 9.88281ZM73.2422 19V11.6172H73.3125L78.5859 19H80.5391V7.72656H78.2812V15.0703H78.2188L72.9531 7.72656H70.9844V19H73.2422ZM89.8047 19H92.3125L88.3906 7.72656H85.6172L81.7031 19H84.125L84.9844 16.2656H88.9453L89.8047 19ZM86.9375 9.88281H86.9922L88.4375 14.5H85.4922L86.9375 9.88281ZM100.758 17.0469H95.8281V7.72656H93.4688V19H100.758V17.0469ZM105.922 19V14.7891L109.852 7.72656H107.32L104.789 12.5391H104.734L102.211 7.72656H99.6406L103.562 14.7891V19H105.922ZM116.094 19V9.67188H119.398V7.72656H110.438V9.67188H113.734V19H116.094ZM123.062 19V7.72656H120.703V19H123.062ZM129.922 19.1953C132.688 19.1953 134.617 17.6016 134.883 15.0859H132.586C132.336 16.4219 131.328 17.2422 129.93 17.2422C128.125 17.2422 126.992 15.7578 126.992 13.3516C126.992 10.9766 128.141 9.48438 129.922 9.48438C131.297 9.48438 132.359 10.3906 132.578 11.7734H134.875C134.695 9.25 132.633 7.53125 129.922 7.53125C126.656 7.53125 124.586 9.72656 124.586 13.3594C124.586 17 126.641 19.1953 129.922 19.1953ZM59.5156 31.7891C59.5859 33.9062 61.3125 35.1953 64.0234 35.1953C66.8203 35.1953 68.5938 33.8125 68.5938 31.625C68.5938 29.9062 67.6094 28.9375 65.3516 28.4531L63.9844 28.1641C62.6875 27.8672 62.1406 27.4766 62.1406 26.7812C62.1406 25.9453 62.9219 25.3906 64.0859 25.3906C65.2656 25.3906 66.1016 25.9688 66.1797 26.9219H68.3906C68.3516 24.8828 66.7031 23.5312 64.0781 23.5312C61.5625 23.5312 59.7656 24.9062 59.7656 26.9844C59.7656 28.6328 60.7891 29.6875 62.8672 30.1328L64.3359 30.4531C65.6953 30.7578 66.2344 31.1641 66.2344 31.8984C66.2344 32.7266 65.375 33.3281 64.1172 33.3281C62.8672 33.3281 61.8984 32.7188 61.7891 31.7891H59.5156ZM75.1406 35V25.6719H78.4453V23.7266H69.4844V25.6719H72.7812V35H75.1406ZM82.1094 25.5703H84.1562C85.3281 25.5703 86.0625 26.2734 86.0625 27.3672C86.0625 28.4844 85.3672 29.1641 84.1797 29.1641H82.1094V25.5703ZM82.1094 30.875H84.0391L86.1406 35H88.8125L86.4375 30.5234C87.7344 30.0156 88.4844 28.7656 88.4844 27.3203C88.4844 25.0938 87 23.7266 84.4062 23.7266H79.75V35H82.1094V30.875ZM97.5 33.0469H92.3906V30.2031H97.2109V28.3906H92.3906V25.6719H97.5V23.7266H90.0312V35H97.5V33.0469ZM106.586 35H109.094L105.172 23.7266H102.398L98.4844 35H100.906L101.766 32.2656H105.727L106.586 35ZM103.719 25.8828H103.773L105.219 30.5H102.273L103.719 25.8828ZM122.188 23.7266H119.453L116.25 31.7188H116.188L112.984 23.7266H110.25V35H112.352V27.3906H112.414L115.477 34.8906H116.961L120.023 27.3906H120.086V35H122.188V23.7266ZM131.531 33.0469H126.422V30.2031H131.242V28.3906H126.422V25.6719H131.531V23.7266H124.062V35H131.531V33.0469ZM135.594 25.5703H137.641C138.812 25.5703 139.547 26.2734 139.547 27.3672C139.547 28.4844 138.852 29.1641 137.664 29.1641H135.594V25.5703ZM135.594 30.875H137.523L139.625 35H142.297L139.922 30.5234C141.219 30.0156 141.969 28.7656 141.969 27.3203C141.969 25.0938 140.484 23.7266 137.891 23.7266H133.234V35H135.594V30.875Z" fill="#474D5B"/>
<rect width="42" height="41" rx="13" fill="#EB4247"/>
<path d="M35 17C35 24.1797 28.732 30 21 30C13.268 30 7 24.1797 7 17" stroke="white" stroke-width="3" stroke-linecap="round"/>
<circle cx="21" cy="17.9062" r="4.5" stroke="white" stroke-width="3"/>
<line x1="21.5" y1="30" x2="21.5" y2="41" stroke="white" stroke-width="3"/>
</svg>
