<svg width="24" height="24" viewBox="0 0 24 24" fill="none" xmlns="http://www.w3.org/2000/svg">
<g id="27) Icon/pie-chart -fill">
<path id="&#240;&#159;&#142;&#168; Icon &#208;&#161;olor" fill-rule="evenodd" clip-rule="evenodd" d="M12.9345 11.9777H21.0835C21.6255 11.9777 22.0495 12.4497 21.9955 12.9887C21.4515 18.4147 16.5795 22.5667 10.8815 21.9367C6.2965 21.4307 2.5695 17.7037 2.0625 13.1187C1.4345 7.42065 5.5845 2.54765 11.0115 2.00465C11.5515 1.95065 12.0225 2.37365 12.0225 2.91565V11.0667C12.0225 11.5697 12.4305 11.9777 12.9345 11.9777ZM21.167 10.3332H14.5C14.04 10.3332 13.667 9.96115 13.667 9.50015V2.83315C13.667 2.37315 14.04 2.00015 14.5 2.00015C18.635 2.00015 22 5.36415 22 9.50015C22 9.96115 21.627 10.3332 21.167 10.3332Z" fill="#F6655A"/>
<mask id="mask0" mask-type="alpha" maskUnits="userSpaceOnUse" x="1" y="2" width="22" height="20">
<path id="&#240;&#159;&#142;&#168; Icon &#208;&#161;olor_2" fill-rule="evenodd" clip-rule="evenodd" d="M12.9345 11.9777H21.0835C21.6255 11.9777 22.0495 12.4497 21.9955 12.9887C21.4515 18.4147 16.5795 22.5667 10.8815 21.9367C6.2965 21.4307 2.5695 17.7037 2.0625 13.1187C1.4345 7.42065 5.5845 2.54765 11.0115 2.00465C11.5515 1.95065 12.0225 2.37365 12.0225 2.91565V11.0667C12.0225 11.5697 12.4305 11.9777 12.9345 11.9777ZM21.167 10.3332H14.5C14.04 10.3332 13.667 9.96115 13.667 9.50015V2.83315C13.667 2.37315 14.04 2.00015 14.5 2.00015C18.635 2.00015 22 5.36415 22 9.50015C22 9.96115 21.627 10.3332 21.167 10.3332Z" fill="white"/>
</mask>
<g mask="url(#mask0)">
</g>
</g>
</svg>
