<svg width="24" height="24" viewBox="0 0 24 24" fill="none" xmlns="http://www.w3.org/2000/svg">
<path fill-rule="evenodd" clip-rule="evenodd" d="M5 10.9877C5 7.68237 7.691 4.99436 11 4.99436C14.309 4.99436 17 7.68237 17 10.9877C17 14.293 14.309 16.981 11 16.981C7.691 16.981 5 14.293 5 10.9877ZM20.707 19.2715L17.312 15.8793C18.365 14.5268 19 12.8317 19 10.9877C19 6.5816 15.411 2.99658 11 2.99658C6.589 2.99658 3 6.5816 3 10.9877C3 15.3938 6.589 18.9788 11 18.9788C12.846 18.9788 14.543 18.3445 15.897 17.2927L19.293 20.6839C19.488 20.8787 19.744 20.9766 20 20.9766C20.256 20.9766 20.512 20.8787 20.707 20.6839C21.098 20.2934 21.098 19.6621 20.707 19.2715Z" fill="#9696A0"/>
<mask id="mask0" mask-type="alpha" maskUnits="userSpaceOnUse" x="3" y="2" width="19" height="19">
<path fill-rule="evenodd" clip-rule="evenodd" d="M5 10.9877C5 7.68237 7.691 4.99436 11 4.99436C14.309 4.99436 17 7.68237 17 10.9877C17 14.293 14.309 16.981 11 16.981C7.691 16.981 5 14.293 5 10.9877ZM20.707 19.2715L17.312 15.8793C18.365 14.5268 19 12.8317 19 10.9877C19 6.5816 15.411 2.99658 11 2.99658C6.589 2.99658 3 6.5816 3 10.9877C3 15.3938 6.589 18.9788 11 18.9788C12.846 18.9788 14.543 18.3445 15.897 17.2927L19.293 20.6839C19.488 20.8787 19.744 20.9766 20 20.9766C20.256 20.9766 20.512 20.8787 20.707 20.6839C21.098 20.2934 21.098 19.6621 20.707 19.2715Z" fill="white"/>
</mask>
<g mask="url(#mask0)">
</g>
</svg>
